<svg width="85" height="91" viewBox="0 0 85 91" fill="none" xmlns="http://www.w3.org/2000/svg">
<g clip-path="url(#clip0_49_36)">
<path d="M77.3842 5.25361C76.2028 8.29046 74.6737 11.1581 72.8322 13.7907C68.8893 9.41932 64.1684 5.93987 58.9486 3.55825C53.7289 1.17663 48.1165 -0.0587647 42.4434 -0.0748455C36.7703 -0.0909264 31.1518 1.11264 25.9204 3.46463C20.689 5.81662 15.951 9.26926 11.9866 13.6182C8.02224 17.9672 4.9121 23.1242 2.84022 28.7841C0.768347 34.4439 -0.22318 40.4917 -0.0756866 46.5694C0.0718062 52.6472 1.35532 58.6315 3.69892 64.1683C6.04251 69.7051 9.39857 74.6819 13.5685 78.8041L15.1442 80.3052C21.1237 85.7097 28.3824 89.235 36.1162 90.4909C43.8501 91.7468 51.7575 90.6842 58.9625 87.4207C66.1676 84.1572 72.3893 78.8203 76.9385 72.0008C81.4877 65.1814 84.187 57.1457 84.7374 48.7835C85.963 37.3381 82.724 22.7031 77.3842 5.25361ZM19.6962 79.1794C19.2461 79.7721 18.6422 80.2086 17.9607 80.4336C17.2792 80.6586 16.5508 80.6621 15.8675 80.4436C15.1842 80.225 14.5767 79.7943 14.1217 79.2059C13.6667 78.6174 13.3847 77.8977 13.3114 77.1375C13.238 76.3774 13.3765 75.611 13.7095 74.9352C14.0424 74.2594 14.5548 73.7045 15.1819 73.3407C15.809 72.9769 16.5226 72.8205 17.2327 72.8912C17.9427 72.962 18.6172 73.2567 19.171 73.7381C19.8969 74.3971 20.357 75.3314 20.4549 76.3455C20.5528 77.3597 20.2809 78.3751 19.6962 79.1794V79.1794ZM77.1215 65.5763C66.7045 80.4928 44.2946 75.4268 30.0258 76.1773C30.0258 76.1773 27.4872 76.365 24.9485 76.7402C24.9485 76.7402 25.9115 76.2711 27.137 75.8021C37.2039 72.0495 41.931 71.299 48.0587 67.9217C59.5263 61.6361 70.9938 47.8454 73.2698 33.5856C68.8929 47.2825 55.5871 59.1031 43.5067 63.8876C35.1906 67.1711 20.2214 70.3608 20.2214 70.3608L19.6087 69.9856C9.4542 64.6381 9.10404 40.9969 27.6622 33.3979C35.8033 30.0206 43.5067 31.8969 52.3481 29.6454C61.7148 27.3 72.5695 19.7948 76.9465 9.94433C81.8486 25.799 87.8013 50.3784 77.1215 65.5763Z" fill="black"/>
</g>
<defs>
<clipPath id="clip0_49_36">
<rect width="85" height="91" fill="white"/>
</clipPath>
</defs>
</svg>
